<?xml version="1.0" encoding="UTF-8"?>
<!DOCTYPE svg PUBLIC "-//W3C//DTD SVG 1.1//EN" "http://www.w3.org/Graphics/SVG/1.1/DTD/svg11.dtd">
<svg xmlns="http://www.w3.org/2000/svg" version="1.1" width="500px" height="500px" style="shape-rendering:geometricPrecision; text-rendering:geometricPrecision; image-rendering:optimizeQuality; fill-rule:evenodd; clip-rule:evenodd" xmlns:xlink="http://www.w3.org/1999/xlink">
<g><path style="opacity:0.761" fill="#545454" d="M 169.5,136.5 C 169.5,133.167 169.5,129.833 169.5,126.5C 134.833,126.5 100.167,126.5 65.5,126.5C 65.5,129.5 65.5,132.5 65.5,135.5C 66.791,135.263 67.791,135.596 68.5,136.5C 67.1667,136.5 65.8333,136.5 64.5,136.5C 64.5,132.833 64.5,129.167 64.5,125.5C 99.8333,125.5 135.167,125.5 170.5,125.5C 170.815,129.371 170.482,133.038 169.5,136.5 Z"/></g>
<g><path style="opacity:1" fill="#181919" d="M 334.5,348.5 C 334.491,350.308 334.991,351.975 336,353.5C 336.5,345.507 336.666,337.507 336.5,329.5C 336.311,323.72 336.978,318.053 338.5,312.5C 334.431,308.601 330.931,304.267 328,299.5C 324.459,288.082 328.292,280.248 339.5,276C 342.667,275.748 345.667,275.582 348.5,275.5C 357.061,257.377 365.895,239.377 375,221.5C 383.216,205.087 386.549,187.754 385,169.5C 384.325,158.118 379.825,148.618 371.5,141C 366.817,138.383 361.817,136.883 356.5,136.5C 356.5,132.833 356.5,129.167 356.5,125.5C 392.167,125.5 427.833,125.5 463.5,125.5C 463.5,129.167 463.5,132.833 463.5,136.5C 458.003,136.328 453.503,138.328 450,142.5C 442.15,169.201 429.817,193.534 413,215.5C 401.333,227.833 389.667,240.167 378,252.5C 371.059,261.377 365.392,271.044 361,281.5C 360.333,282.833 360.333,284.167 361,285.5C 367.239,292.326 372.739,299.66 377.5,307.5C 377.427,309.027 378.094,310.027 379.5,310.5C 380.167,310.5 380.5,310.833 380.5,311.5C 379.079,314.343 377.079,315.676 374.5,315.5C 369.298,307.45 363.464,299.783 357,292.5C 354.698,299.031 353.365,305.697 353,312.5C 358.5,316.166 364.333,319.166 370.5,321.5C 372.684,323.585 375.351,324.585 378.5,324.5C 380.858,326.129 383.524,327.295 386.5,328C 389.411,331.187 388.911,333.687 385,335.5C 382.352,334.786 379.852,333.786 377.5,332.5C 376.791,331.596 375.791,331.263 374.5,331.5C 371.376,329.943 368.209,328.277 365,326.5C 364.617,327.056 364.117,327.389 363.5,327.5C 359.483,324.733 355.316,322.066 351,319.5C 348.575,337.084 347.908,354.75 349,372.5C 349.658,381.456 351.491,390.123 354.5,398.5C 335.674,399.497 316.674,399.83 297.5,399.5C 288.951,398.3 283.117,393.633 280,385.5C 271.692,354.602 263.859,323.602 256.5,292.5C 256.631,291.761 256.464,291.094 256,290.5C 254.812,291.563 254.312,292.897 254.5,294.5C 253.369,300.06 251.536,305.393 249,310.5C 239.425,326.649 231.758,343.649 226,361.5C 222.951,373.481 222.784,385.481 225.5,397.5C 207.197,399.487 188.53,400.154 169.5,399.5C 161.11,397.618 155.276,392.618 152,384.5C 132.489,308.124 112.823,231.791 93,155.5C 87.9868,144.93 79.8201,138.597 68.5,136.5C 67.791,135.596 66.791,135.263 65.5,135.5C 65.5,132.5 65.5,129.5 65.5,126.5C 100.167,126.5 134.833,126.5 169.5,126.5C 169.5,129.833 169.5,133.167 169.5,136.5C 162.19,137.81 157.857,142.143 156.5,149.5C 174.841,221.865 193.341,294.199 212,366.5C 213.732,358.971 216.065,351.638 219,344.5C 226.163,329.173 232.497,313.506 238,297.5C 243.062,280.841 244.729,263.841 243,246.5C 236.277,214.942 228.61,183.608 220,152.5C 215.308,142.57 207.475,137.236 196.5,136.5C 196.5,132.833 196.5,129.167 196.5,125.5C 232.167,125.5 267.833,125.5 303.5,125.5C 303.5,129.167 303.5,132.833 303.5,136.5C 290.873,137.953 285.04,144.953 286,157.5C 302.641,221.064 318.808,284.731 334.5,348.5 Z M 343.5,282.5 C 344.167,283.167 344.833,283.833 345.5,284.5C 343.363,290.373 341.53,296.373 340,302.5C 330.671,293.836 331.838,287.169 343.5,282.5 Z"/></g>
<g><path style="opacity:0.463" fill="#8f9090" d="M 343.5,282.5 C 344.675,282.281 345.675,282.614 346.5,283.5C 346.376,284.107 346.043,284.44 345.5,284.5C 344.833,283.833 344.167,283.167 343.5,282.5 Z"/></g>
<g><path style="opacity:0.443" fill="#a5a5a5" d="M 256.5,292.5 C 255.833,293.167 255.167,293.833 254.5,294.5C 254.312,292.897 254.812,291.563 256,290.5C 256.464,291.094 256.631,291.761 256.5,292.5 Z"/></g>
<g><path style="opacity:1" fill="#f03c43" d="M 363.5,327.5 C 364.117,327.389 364.617,327.056 365,326.5C 368.209,328.277 371.376,329.943 374.5,331.5C 374.328,332.492 374.662,333.158 375.5,333.5C 378.751,341.289 384.085,343.123 391.5,339C 395.5,334 395.5,329 391.5,324C 387.006,320.711 382.673,320.878 378.5,324.5C 375.351,324.585 372.684,323.585 370.5,321.5C 372.252,319.754 373.585,317.754 374.5,315.5C 377.079,315.676 379.079,314.343 380.5,311.5C 384.332,307.836 388.332,304.336 392.5,301C 395.802,299.203 399.135,299.203 402.5,301C 433.624,325.788 464.457,350.955 495,376.5C 497,379.5 497,382.5 495,385.5C 473.833,405.333 452.667,425.167 431.5,445C 428.5,447 425.5,447 422.5,445C 398.878,412.922 375.378,380.755 352,348.5C 351.333,345.167 351.333,341.833 352,338.5C 355.702,334.63 359.536,330.963 363.5,327.5 Z M 422.5,341.5 C 423.721,342.028 424.887,342.695 426,343.5C 429.844,367.4 433.011,391.233 435.5,415C 431.979,417.428 429.145,416.928 427,413.5C 423.587,390.607 420.087,367.774 416.5,345C 418.257,343.25 420.257,342.084 422.5,341.5 Z M 446.5,366.5 C 457.592,367.065 461.092,372.398 457,382.5C 448.472,388.602 442.639,386.602 439.5,376.5C 440.304,372.04 442.637,368.707 446.5,366.5 Z M 409.5,376.5 C 409.932,377.71 410.599,378.71 411.5,379.5C 411.975,386.699 408.641,391.032 401.5,392.5C 393.433,390.359 390.599,385.359 393,377.5C 398.243,371.258 403.743,370.925 409.5,376.5 Z"/></g>
<g><path style="opacity:0.604" fill="#898a8a" d="M 377.5,307.5 C 378.906,307.973 379.573,308.973 379.5,310.5C 378.094,310.027 377.427,309.027 377.5,307.5 Z"/></g>
<g><path style="opacity:0.627" fill="#b69697" d="M 374.5,331.5 C 375.791,331.263 376.791,331.596 377.5,332.5C 376.508,332.328 375.842,332.662 375.5,333.5C 374.662,333.158 374.328,332.492 374.5,331.5 Z"/></g>
<g><path style="opacity:0.618" fill="#858686" d="M 336.5,329.5 C 336.666,337.507 336.5,345.507 336,353.5C 334.991,351.975 334.491,350.308 334.5,348.5C 335.167,342.167 335.833,335.833 336.5,329.5 Z"/></g>
<g><path style="opacity:0.953" fill="#ff9e9a" d="M 409.5,376.5 C 411.048,376.821 411.715,377.821 411.5,379.5C 410.599,378.71 409.932,377.71 409.5,376.5 Z"/></g>
<g><path style="opacity:0.494" fill="#8b8c8c" d="M 225.5,397.5 C 226.404,398.209 226.737,399.209 226.5,400.5C 207.326,400.83 188.326,400.497 169.5,399.5C 188.53,400.154 207.197,399.487 225.5,397.5 Z"/></g>
<g><path style="opacity:0.493" fill="#8d8e8e" d="M 354.5,398.5 C 355.043,398.56 355.376,398.893 355.5,399.5C 336.004,400.828 316.671,400.828 297.5,399.5C 316.674,399.83 335.674,399.497 354.5,398.5 Z"/></g>
</svg>
